<?xml version="1.0" standalone="no"?>
<!DOCTYPE svg PUBLIC "-//W3C//DTD SVG 20010904//EN"
 "http://www.w3.org/TR/2001/REC-SVG-20010904/DTD/svg10.dtd">
<svg version="1.0" xmlns="http://www.w3.org/2000/svg"
 width="512.000000pt" height="512.000000pt" viewBox="0 0 512.000000 512.000000"
 preserveAspectRatio="xMidYMid meet">

<g transform="translate(0.000000,512.000000) scale(0.100000,-0.100000)"
fill="#000000" stroke="none">
<path d="M2433 5025 c-12 -8 -58 -85 -103 -170 -44 -85 -84 -155 -88 -155 -44
0 -337 -42 -352 -50 -25 -13 -40 -41 -40 -75 0 -21 28 -56 126 -155 l126 -129
-42 -180 c-23 -102 -39 -190 -35 -202 4 -11 22 -27 40 -36 34 -16 35 -16 137
32 57 26 135 62 173 80 l71 32 148 -88 c147 -88 178 -99 217 -78 37 19 39 49
19 226 -11 92 -20 173 -20 180 0 6 61 66 135 133 123 111 135 125 135 156 0
43 -27 71 -77 80 -21 4 -101 19 -178 33 l-139 26 -73 159 c-40 88 -81 168 -90
178 -20 22 -61 23 -90 3z m90 -360 c26 -55 54 -106 65 -113 14 -9 211 -52 240
-52 2 0 -37 -34 -87 -75 -56 -47 -93 -85 -97 -101 -4 -14 0 -76 8 -137 8 -62
14 -113 13 -115 -2 -2 -46 24 -98 58 -53 33 -104 60 -114 60 -10 0 -56 -19
-103 -41 -88 -42 -130 -61 -130 -56 0 2 9 43 20 93 34 152 33 153 -66 254
l-85 88 33 5 c18 4 69 9 113 13 44 3 90 12 102 20 12 7 45 59 74 114 29 55 56
97 60 93 4 -5 27 -53 52 -108z"/>
<path d="M1133 4535 c-12 -8 -56 -81 -98 -162 -43 -82 -78 -149 -79 -150 -1
-2 -83 -10 -182 -19 -122 -11 -184 -21 -195 -31 -20 -17 -30 -70 -18 -98 4
-11 61 -77 127 -147 l119 -127 -38 -158 c-43 -175 -46 -214 -23 -237 36 -37
59 -32 234 52 l168 80 149 -89 c124 -75 155 -89 191 -89 67 0 70 15 45 228
l-21 177 141 136 c132 128 140 137 133 165 -13 54 -31 62 -219 98 -98 18 -179
35 -180 37 -2 2 -36 77 -76 167 -41 90 -82 167 -92 172 -26 14 -61 12 -86 -5z
m121 -413 c14 -43 50 -62 161 -82 59 -11 110 -22 112 -24 2 -1 -35 -38 -81
-80 -56 -51 -87 -86 -91 -106 -3 -16 -1 -74 5 -130 7 -56 10 -103 8 -105 -2
-3 -47 22 -99 55 -52 33 -104 60 -116 60 -12 0 -71 -22 -130 -49 -59 -28 -109
-49 -111 -47 -1 2 8 54 22 115 14 61 22 119 19 128 -4 10 -42 56 -85 103 l-79
85 33 7 c18 4 71 10 118 13 47 4 93 12 103 17 9 5 31 37 48 71 17 34 43 81 57
105 l25 44 38 -81 c20 -44 40 -89 43 -99z"/>
<path d="M3771 4527 c-15 -7 -54 -68 -106 -162 -46 -82 -89 -153 -97 -157 -7
-4 -89 -14 -182 -22 -190 -18 -206 -24 -206 -85 0 -32 13 -50 125 -167 l124
-132 -34 -161 c-40 -182 -41 -198 -20 -228 31 -45 60 -39 225 42 85 41 161 75
169 75 7 0 77 -38 155 -84 141 -83 210 -108 235 -83 15 15 14 58 -6 236 l-17
154 137 131 c112 107 137 136 137 159 0 55 -31 70 -200 101 -85 15 -165 31
-178 34 -18 6 -36 38 -88 162 -80 191 -108 221 -173 187z m137 -449 c11 -11
56 -25 126 -37 59 -11 110 -22 113 -24 2 -3 -30 -36 -72 -73 -106 -95 -109
-102 -95 -223 7 -55 10 -106 8 -115 -2 -12 -24 -2 -98 44 -52 33 -103 60 -112
60 -10 0 -66 -22 -125 -49 -59 -28 -109 -49 -111 -47 -1 2 8 54 22 115 14 61
22 119 19 128 -4 10 -42 56 -85 103 l-79 85 33 7 c18 4 70 10 116 13 54 5 90
13 102 24 11 9 38 50 61 91 77 140 65 138 115 19 24 -57 52 -111 62 -121z"/>
<path d="M2178 3595 c-33 -18 -31 -11 -57 -235 -34 -284 -90 -524 -181 -772
-43 -118 -158 -376 -171 -384 -5 -3 -226 -5 -491 -5 l-483 1 -50 -23 c-27 -13
-67 -43 -88 -67 -77 -84 -72 -18 -72 -945 0 -824 0 -830 21 -876 26 -56 82
-111 143 -141 46 -23 47 -23 519 -23 l474 0 22 25 22 26 69 -33 c143 -66 102
-64 1220 -61 l1010 3 56 28 c189 92 251 327 132 500 l-26 37 40 34 c47 41 98
133 114 205 14 68 -2 168 -41 238 -15 29 -25 53 -20 53 19 0 95 90 119 140 22
47 26 69 26 146 0 86 -2 96 -38 165 -34 67 -36 74 -20 83 38 20 94 91 114 145
17 45 20 71 17 136 -8 135 -69 229 -186 287 l-67 33 -748 3 c-704 2 -749 4
-742 20 21 55 58 200 71 282 12 72 15 133 10 251 -10 265 -57 391 -201 535
-68 68 -97 89 -176 127 -102 49 -149 62 -249 71 -49 5 -72 2 -92 -9z m245
-176 c86 -33 178 -108 229 -185 64 -98 78 -142 94 -289 21 -195 4 -327 -72
-546 -48 -137 -52 -169 -28 -193 8 -9 16 -17 17 -18 1 -2 367 -5 813 -8 l810
-5 42 -28 c117 -77 107 -253 -18 -317 -32 -16 -59 -20 -148 -20 -95 0 -113 -3
-136 -21 -20 -16 -26 -29 -26 -59 0 -58 33 -80 122 -80 83 0 123 -15 165 -63
28 -32 53 -90 53 -122 0 -30 -24 -88 -47 -116 -45 -53 -93 -69 -214 -69 -92 0
-110 -3 -133 -21 -31 -25 -35 -75 -8 -109 16 -19 31 -23 118 -29 117 -8 152
-26 178 -91 44 -112 -13 -239 -122 -270 -20 -5 -83 -10 -139 -10 -98 0 -102
-1 -122 -26 -26 -33 -27 -64 -1 -96 17 -22 29 -26 110 -31 103 -7 136 -21 183
-79 59 -73 42 -193 -35 -251 -19 -15 -57 -31 -84 -37 -35 -8 -351 -10 -1010
-8 l-959 3 -65 23 c-36 13 -96 40 -135 60 l-70 37 0 790 0 790 43 68 c23 37
73 129 111 205 171 341 287 721 337 1102 9 69 18 131 20 139 5 16 51 9 127
-20z m-797 -1421 c-4 -29 -6 -69 -6 -88 1 -19 4 -394 6 -832 l4 -798 -402 0
c-382 0 -405 1 -432 19 -58 38 -55 1 -56 866 0 885 -4 824 64 866 29 18 55 19
429 19 l399 0 -6 -52z"/>
<path d="M914 600 c-54 -17 -70 -84 -29 -125 l24 -25 276 0 c262 0 276 1 295
20 28 28 27 90 -1 116 -19 18 -41 19 -278 21 -141 1 -270 -2 -287 -7z"/>
</g>
</svg>
